<svg xmlns="http://www.w3.org/2000/svg" xmlns:xlink="http://www.w3.org/1999/xlink" width="500" zoomAndPan="magnify" viewBox="0 0 375 374.999991" height="500" preserveAspectRatio="xMidYMid meet" version="1.0"><defs><g/><clipPath id="a648648dad"><path d="M 291.070312 145.738281 L 316.632812 145.738281 L 316.632812 171.304688 L 291.070312 171.304688 Z M 291.070312 145.738281 " clip-rule="nonzero"/></clipPath><clipPath id="92c848dd4d"><path d="M 303.851562 145.738281 C 296.792969 145.738281 291.070312 151.460938 291.070312 158.523438 C 291.070312 165.582031 296.792969 171.304688 303.851562 171.304688 C 310.910156 171.304688 316.632812 165.582031 316.632812 158.523438 C 316.632812 151.460938 310.910156 145.738281 303.851562 145.738281 Z M 303.851562 145.738281 " clip-rule="nonzero"/></clipPath><clipPath id="8ddf0884a3"><path d="M 0.0703125 0.738281 L 25.632812 0.738281 L 25.632812 26.304688 L 0.0703125 26.304688 Z M 0.0703125 0.738281 " clip-rule="nonzero"/></clipPath><clipPath id="2f5e204b46"><path d="M 12.851562 0.738281 C 5.792969 0.738281 0.0703125 6.460938 0.0703125 13.523438 C 0.0703125 20.582031 5.792969 26.304688 12.851562 26.304688 C 19.910156 26.304688 25.632812 20.582031 25.632812 13.523438 C 25.632812 6.460938 19.910156 0.738281 12.851562 0.738281 Z M 12.851562 0.738281 " clip-rule="nonzero"/></clipPath><clipPath id="dfc4bcdc09"><rect x="0" width="26" y="0" height="27"/></clipPath><clipPath id="3c2c2a1434"><path d="M 223.320312 145.890625 L 248.882812 145.890625 L 248.882812 171.457031 L 223.320312 171.457031 Z M 223.320312 145.890625 " clip-rule="nonzero"/></clipPath><clipPath id="6f4b092daf"><path d="M 236.101562 145.890625 C 229.042969 145.890625 223.320312 151.613281 223.320312 158.675781 C 223.320312 165.734375 229.042969 171.457031 236.101562 171.457031 C 243.160156 171.457031 248.882812 165.734375 248.882812 158.675781 C 248.882812 151.613281 243.160156 145.890625 236.101562 145.890625 Z M 236.101562 145.890625 " clip-rule="nonzero"/></clipPath><clipPath id="568cf2edaa"><path d="M 0.320312 0.890625 L 25.882812 0.890625 L 25.882812 26.457031 L 0.320312 26.457031 Z M 0.320312 0.890625 " clip-rule="nonzero"/></clipPath><clipPath id="1d5287c0d8"><path d="M 13.101562 0.890625 C 6.042969 0.890625 0.320312 6.613281 0.320312 13.675781 C 0.320312 20.734375 6.042969 26.457031 13.101562 26.457031 C 20.160156 26.457031 25.882812 20.734375 25.882812 13.675781 C 25.882812 6.613281 20.160156 0.890625 13.101562 0.890625 Z M 13.101562 0.890625 " clip-rule="nonzero"/></clipPath><clipPath id="6a07f4f98a"><rect x="0" width="26" y="0" height="27"/></clipPath><clipPath id="5648a3bb2e"><path d="M 257.195312 145.890625 L 282.757812 145.890625 L 282.757812 171.457031 L 257.195312 171.457031 Z M 257.195312 145.890625 " clip-rule="nonzero"/></clipPath><clipPath id="72312af683"><path d="M 269.976562 145.890625 C 262.917969 145.890625 257.195312 151.613281 257.195312 158.675781 C 257.195312 165.734375 262.917969 171.457031 269.976562 171.457031 C 277.035156 171.457031 282.757812 165.734375 282.757812 158.675781 C 282.757812 151.613281 277.035156 145.890625 269.976562 145.890625 Z M 269.976562 145.890625 " clip-rule="nonzero"/></clipPath><clipPath id="9f75e69fed"><path d="M 0.195312 0.890625 L 25.757812 0.890625 L 25.757812 26.457031 L 0.195312 26.457031 Z M 0.195312 0.890625 " clip-rule="nonzero"/></clipPath><clipPath id="54e1f19b3e"><path d="M 12.976562 0.890625 C 5.917969 0.890625 0.195312 6.613281 0.195312 13.675781 C 0.195312 20.734375 5.917969 26.457031 12.976562 26.457031 C 20.035156 26.457031 25.757812 20.734375 25.757812 13.675781 C 25.757812 6.613281 20.035156 0.890625 12.976562 0.890625 Z M 12.976562 0.890625 " clip-rule="nonzero"/></clipPath><clipPath id="d335a37b01"><rect x="0" width="26" y="0" height="27"/></clipPath><clipPath id="342a56fc18"><path d="M 262.492188 151.1875 L 277.460938 151.1875 L 277.460938 166.160156 L 262.492188 166.160156 Z M 262.492188 151.1875 " clip-rule="nonzero"/></clipPath><clipPath id="8ff96b32f2"><path d="M 269.976562 151.1875 C 265.84375 151.1875 262.492188 154.539062 262.492188 158.675781 C 262.492188 162.808594 265.84375 166.160156 269.976562 166.160156 C 274.109375 166.160156 277.460938 162.808594 277.460938 158.675781 C 277.460938 154.539062 274.109375 151.1875 269.976562 151.1875 Z M 269.976562 151.1875 " clip-rule="nonzero"/></clipPath><clipPath id="03af568cd0"><path d="M 0.492188 0.1875 L 15.460938 0.1875 L 15.460938 15.160156 L 0.492188 15.160156 Z M 0.492188 0.1875 " clip-rule="nonzero"/></clipPath><clipPath id="15d61b9d93"><path d="M 7.976562 0.1875 C 3.84375 0.1875 0.492188 3.539062 0.492188 7.675781 C 0.492188 11.808594 3.84375 15.160156 7.976562 15.160156 C 12.109375 15.160156 15.460938 11.808594 15.460938 7.675781 C 15.460938 3.539062 12.109375 0.1875 7.976562 0.1875 Z M 7.976562 0.1875 " clip-rule="nonzero"/></clipPath><clipPath id="179c000fc5"><rect x="0" width="16" y="0" height="16"/></clipPath><clipPath id="40d7b9df27"><path d="M 225.335938 147.910156 L 246.867188 147.910156 L 246.867188 169.4375 L 225.335938 169.4375 Z M 225.335938 147.910156 " clip-rule="nonzero"/></clipPath><clipPath id="b0276cd330"><path d="M 236.101562 147.910156 C 230.15625 147.910156 225.335938 152.726562 225.335938 158.675781 C 225.335938 164.621094 230.15625 169.4375 236.101562 169.4375 C 242.046875 169.4375 246.867188 164.621094 246.867188 158.675781 C 246.867188 152.726562 242.046875 147.910156 236.101562 147.910156 Z M 236.101562 147.910156 " clip-rule="nonzero"/></clipPath><clipPath id="f40b53912a"><path d="M 0.335938 0.910156 L 21.867188 0.910156 L 21.867188 22.4375 L 0.335938 22.4375 Z M 0.335938 0.910156 " clip-rule="nonzero"/></clipPath><clipPath id="13361d1c34"><path d="M 11.101562 0.910156 C 5.15625 0.910156 0.335938 5.726562 0.335938 11.675781 C 0.335938 17.621094 5.15625 22.4375 11.101562 22.4375 C 17.046875 22.4375 21.867188 17.621094 21.867188 11.675781 C 21.867188 5.726562 17.046875 0.910156 11.101562 0.910156 Z M 11.101562 0.910156 " clip-rule="nonzero"/></clipPath><clipPath id="08a6317cba"><rect x="0" width="22" y="0" height="23"/></clipPath></defs><rect x="-37.5" width="450" fill="#ffffff" y="-37.499999" height="449.999989" fill-opacity="1"/><rect x="-37.5" width="450" fill="#ffffff" y="-37.499999" height="449.999989" fill-opacity="1"/><g clip-path="url(#a648648dad)"><g clip-path="url(#92c848dd4d)"><g transform="matrix(1, 0, 0, 1, 291, 145)"><g clip-path="url(#dfc4bcdc09)"><g clip-path="url(#8ddf0884a3)"><g clip-path="url(#2f5e204b46)"><path fill="#36b230" d="M 0.0703125 0.738281 L 25.632812 0.738281 L 25.632812 26.304688 L 0.0703125 26.304688 Z M 0.0703125 0.738281 " fill-opacity="1" fill-rule="nonzero"/></g></g></g></g></g></g><g fill="#5dbc2d" fill-opacity="1"><g transform="translate(73.920703, 196.907917)"><g><path d="M 17.09375 0 L 17.078125 -10.765625 L 11.734375 -1.859375 L 10.390625 -1.859375 L 5.0625 -10.625 L 5.0625 0 L 2.1875 0 L 2.1875 -16.25 L 4.65625 -16.25 L 11.109375 -5.46875 L 17.453125 -16.25 L 19.9375 -16.25 L 19.953125 0 Z M 17.09375 0 "/></g></g></g><g fill="#5dbc2d" fill-opacity="1"><g transform="translate(103.029538, 196.907917)"><g><path d="M 14.359375 -2.53125 L 14.359375 0 L 2.1875 0 L 2.1875 -16.25 L 14.03125 -16.25 L 14.03125 -13.71875 L 5.203125 -13.71875 L 5.203125 -9.484375 L 13.046875 -9.484375 L 13.046875 -7 L 5.203125 -7 L 5.203125 -2.53125 Z M 14.359375 -2.53125 "/></g></g></g><g fill="#5dbc2d" fill-opacity="1"><g transform="translate(125.528804, 196.907917)"><g><path d="M 2.1875 -16.25 L 9.28125 -16.25 C 11.007812 -16.25 12.546875 -15.910156 13.890625 -15.234375 C 15.242188 -14.554688 16.289062 -13.601562 17.03125 -12.375 C 17.769531 -11.144531 18.140625 -9.726562 18.140625 -8.125 C 18.140625 -6.507812 17.769531 -5.085938 17.03125 -3.859375 C 16.289062 -2.628906 15.242188 -1.675781 13.890625 -1 C 12.546875 -0.332031 11.007812 0 9.28125 0 L 2.1875 0 Z M 9.140625 -2.546875 C 10.328125 -2.546875 11.375 -2.773438 12.28125 -3.234375 C 13.1875 -3.691406 13.882812 -4.34375 14.375 -5.1875 C 14.863281 -6.03125 15.109375 -7.007812 15.109375 -8.125 C 15.109375 -9.238281 14.863281 -10.21875 14.375 -11.0625 C 13.882812 -11.90625 13.1875 -12.550781 12.28125 -13 C 11.375 -13.457031 10.328125 -13.6875 9.140625 -13.6875 L 5.203125 -13.6875 L 5.203125 -2.546875 Z M 9.140625 -2.546875 "/></g></g></g><g fill="#000000" fill-opacity="1"><g transform="translate(151.651166, 196.907917)"><g><path d="M 2.1875 -16.25 L 5.203125 -16.25 L 5.203125 0 L 2.1875 0 Z M 2.1875 -16.25 "/></g></g></g><g fill="#000000" fill-opacity="1"><g transform="translate(166.010239, 196.907917)"><g><path d="M 16.609375 -16.25 L 16.609375 0 L 14.125 0 L 5.171875 -11 L 5.171875 0 L 2.1875 0 L 2.1875 -16.25 L 4.65625 -16.25 L 13.625 -5.25 L 13.625 -16.25 Z M 16.609375 -16.25 "/></g></g></g><g fill="#000000" fill-opacity="1"><g transform="translate(191.756308, 196.907917)"><g><path d="M 7.21875 0.234375 C 5.96875 0.234375 4.753906 0.0546875 3.578125 -0.296875 C 2.410156 -0.648438 1.488281 -1.125 0.8125 -1.71875 L 1.859375 -4.0625 C 2.523438 -3.53125 3.335938 -3.097656 4.296875 -2.765625 C 5.265625 -2.441406 6.238281 -2.28125 7.21875 -2.28125 C 8.425781 -2.28125 9.328125 -2.472656 9.921875 -2.859375 C 10.515625 -3.242188 10.8125 -3.753906 10.8125 -4.390625 C 10.8125 -4.847656 10.644531 -5.226562 10.3125 -5.53125 C 9.976562 -5.832031 9.554688 -6.066406 9.046875 -6.234375 C 8.535156 -6.410156 7.84375 -6.609375 6.96875 -6.828125 C 5.726562 -7.117188 4.722656 -7.410156 3.953125 -7.703125 C 3.191406 -7.992188 2.535156 -8.453125 1.984375 -9.078125 C 1.429688 -9.710938 1.15625 -10.5625 1.15625 -11.625 C 1.15625 -12.519531 1.398438 -13.332031 1.890625 -14.0625 C 2.378906 -14.800781 3.113281 -15.382812 4.09375 -15.8125 C 5.070312 -16.25 6.273438 -16.46875 7.703125 -16.46875 C 8.691406 -16.46875 9.664062 -16.34375 10.625 -16.09375 C 11.582031 -15.851562 12.410156 -15.5 13.109375 -15.03125 L 12.15625 -12.6875 C 11.445312 -13.101562 10.703125 -13.421875 9.921875 -13.640625 C 9.148438 -13.859375 8.40625 -13.96875 7.6875 -13.96875 C 6.488281 -13.96875 5.597656 -13.765625 5.015625 -13.359375 C 4.441406 -12.960938 4.15625 -12.429688 4.15625 -11.765625 C 4.15625 -11.296875 4.320312 -10.914062 4.65625 -10.625 C 4.988281 -10.332031 5.410156 -10.097656 5.921875 -9.921875 C 6.429688 -9.753906 7.125 -9.5625 8 -9.34375 C 9.207031 -9.070312 10.195312 -8.785156 10.96875 -8.484375 C 11.75 -8.179688 12.410156 -7.71875 12.953125 -7.09375 C 13.503906 -6.476562 13.78125 -5.644531 13.78125 -4.59375 C 13.78125 -3.695312 13.535156 -2.882812 13.046875 -2.15625 C 12.566406 -1.425781 11.828125 -0.84375 10.828125 -0.40625 C 9.835938 0.0195312 8.632812 0.234375 7.21875 0.234375 Z M 7.21875 0.234375 "/></g></g></g><g fill="#000000" fill-opacity="1"><g transform="translate(213.304731, 196.907917)"><g><path d="M 2.1875 -16.25 L 5.203125 -16.25 L 5.203125 0 L 2.1875 0 Z M 2.1875 -16.25 "/></g></g></g><g fill="#000000" fill-opacity="1"><g transform="translate(227.663804, 196.907917)"><g><path d="M 13.265625 -8.3125 L 16.125 -8.3125 L 16.125 -1.828125 C 15.289062 -1.160156 14.316406 -0.648438 13.203125 -0.296875 C 12.085938 0.0546875 10.941406 0.234375 9.765625 0.234375 C 8.109375 0.234375 6.613281 -0.125 5.28125 -0.84375 C 3.957031 -1.5625 2.914062 -2.554688 2.15625 -3.828125 C 1.394531 -5.097656 1.015625 -6.53125 1.015625 -8.125 C 1.015625 -9.71875 1.394531 -11.144531 2.15625 -12.40625 C 2.914062 -13.675781 3.960938 -14.671875 5.296875 -15.390625 C 6.640625 -16.109375 8.144531 -16.46875 9.8125 -16.46875 C 11.175781 -16.46875 12.414062 -16.242188 13.53125 -15.796875 C 14.644531 -15.347656 15.578125 -14.691406 16.328125 -13.828125 L 14.4375 -11.96875 C 13.195312 -13.207031 11.703125 -13.828125 9.953125 -13.828125 C 8.804688 -13.828125 7.785156 -13.585938 6.890625 -13.109375 C 6.003906 -12.628906 5.3125 -11.957031 4.8125 -11.09375 C 4.3125 -10.226562 4.0625 -9.238281 4.0625 -8.125 C 4.0625 -7.039062 4.3125 -6.0625 4.8125 -5.1875 C 5.3125 -4.320312 6.003906 -3.640625 6.890625 -3.140625 C 7.785156 -2.648438 8.800781 -2.40625 9.9375 -2.40625 C 11.195312 -2.40625 12.304688 -2.6875 13.265625 -3.25 Z M 13.265625 -8.3125 "/></g></g></g><g fill="#000000" fill-opacity="1"><g transform="translate(252.528598, 196.907917)"><g><path d="M 16.609375 -16.25 L 16.609375 0 L 13.59375 0 L 13.59375 -6.96875 L 5.203125 -6.96875 L 5.203125 0 L 2.1875 0 L 2.1875 -16.25 L 5.203125 -16.25 L 5.203125 -9.53125 L 13.59375 -9.53125 L 13.59375 -16.25 Z M 16.609375 -16.25 "/></g></g></g><g fill="#000000" fill-opacity="1"><g transform="translate(278.274667, 196.907917)"><g><path d="M 5.46875 -13.6875 L 0.09375 -13.6875 L 0.09375 -16.25 L 13.875 -16.25 L 13.875 -13.6875 L 8.5 -13.6875 L 8.5 0 L 5.46875 0 Z M 5.46875 -13.6875 "/></g></g></g><g fill="#000000" fill-opacity="1"><g transform="translate(299.196914, 196.907917)"><g><path d="M 7.21875 0.234375 C 5.96875 0.234375 4.753906 0.0546875 3.578125 -0.296875 C 2.410156 -0.648438 1.488281 -1.125 0.8125 -1.71875 L 1.859375 -4.0625 C 2.523438 -3.53125 3.335938 -3.097656 4.296875 -2.765625 C 5.265625 -2.441406 6.238281 -2.28125 7.21875 -2.28125 C 8.425781 -2.28125 9.328125 -2.472656 9.921875 -2.859375 C 10.515625 -3.242188 10.8125 -3.753906 10.8125 -4.390625 C 10.8125 -4.847656 10.644531 -5.226562 10.3125 -5.53125 C 9.976562 -5.832031 9.554688 -6.066406 9.046875 -6.234375 C 8.535156 -6.410156 7.84375 -6.609375 6.96875 -6.828125 C 5.726562 -7.117188 4.722656 -7.410156 3.953125 -7.703125 C 3.191406 -7.992188 2.535156 -8.453125 1.984375 -9.078125 C 1.429688 -9.710938 1.15625 -10.5625 1.15625 -11.625 C 1.15625 -12.519531 1.398438 -13.332031 1.890625 -14.0625 C 2.378906 -14.800781 3.113281 -15.382812 4.09375 -15.8125 C 5.070312 -16.25 6.273438 -16.46875 7.703125 -16.46875 C 8.691406 -16.46875 9.664062 -16.34375 10.625 -16.09375 C 11.582031 -15.851562 12.410156 -15.5 13.109375 -15.03125 L 12.15625 -12.6875 C 11.445312 -13.101562 10.703125 -13.421875 9.921875 -13.640625 C 9.148438 -13.859375 8.40625 -13.96875 7.6875 -13.96875 C 6.488281 -13.96875 5.597656 -13.765625 5.015625 -13.359375 C 4.441406 -12.960938 4.15625 -12.429688 4.15625 -11.765625 C 4.15625 -11.296875 4.320312 -10.914062 4.65625 -10.625 C 4.988281 -10.332031 5.410156 -10.097656 5.921875 -9.921875 C 6.429688 -9.753906 7.125 -9.5625 8 -9.34375 C 9.207031 -9.070312 10.195312 -8.785156 10.96875 -8.484375 C 11.75 -8.179688 12.410156 -7.71875 12.953125 -7.09375 C 13.503906 -6.476562 13.78125 -5.644531 13.78125 -4.59375 C 13.78125 -3.695312 13.535156 -2.882812 13.046875 -2.15625 C 12.566406 -1.425781 11.828125 -0.84375 10.828125 -0.40625 C 9.835938 0.0195312 8.632812 0.234375 7.21875 0.234375 Z M 7.21875 0.234375 "/></g></g></g><g fill="#5dbc2d" fill-opacity="1"><g transform="translate(74.198666, 211.694487)"><g><path d="M 6.171875 -3.8125 C 6.578125 -3.675781 6.894531 -3.453125 7.125 -3.140625 C 7.363281 -2.828125 7.484375 -2.441406 7.484375 -1.984375 C 7.484375 -1.347656 7.238281 -0.859375 6.75 -0.515625 C 6.257812 -0.171875 5.550781 0 4.625 0 L 0.984375 0 L 0.984375 -7.3125 L 4.40625 -7.3125 C 5.269531 -7.3125 5.9375 -7.140625 6.40625 -6.796875 C 6.875 -6.460938 7.109375 -6.003906 7.109375 -5.421875 C 7.109375 -5.054688 7.023438 -4.734375 6.859375 -4.453125 C 6.691406 -4.171875 6.460938 -3.957031 6.171875 -3.8125 Z M 2.34375 -6.25 L 2.34375 -4.234375 L 4.265625 -4.234375 C 4.734375 -4.234375 5.09375 -4.316406 5.34375 -4.484375 C 5.601562 -4.660156 5.734375 -4.910156 5.734375 -5.234375 C 5.734375 -5.566406 5.601562 -5.816406 5.34375 -5.984375 C 5.09375 -6.160156 4.734375 -6.25 4.265625 -6.25 Z M 4.53125 -1.0625 C 5.582031 -1.0625 6.109375 -1.414062 6.109375 -2.125 C 6.109375 -2.820312 5.582031 -3.171875 4.53125 -3.171875 L 2.34375 -3.171875 L 2.34375 -1.0625 Z M 4.53125 -1.0625 "/></g></g></g><g fill="#5dbc2d" fill-opacity="1"><g transform="translate(82.226684, 211.694487)"><g><path d="M 0.984375 -7.3125 L 2.34375 -7.3125 L 2.34375 0 L 0.984375 0 Z M 0.984375 -7.3125 "/></g></g></g><g fill="#5dbc2d" fill-opacity="1"><g transform="translate(85.634437, 211.694487)"><g><path d="M 4.40625 0.109375 C 3.65625 0.109375 2.976562 -0.0507812 2.375 -0.375 C 1.78125 -0.707031 1.3125 -1.160156 0.96875 -1.734375 C 0.625 -2.304688 0.453125 -2.945312 0.453125 -3.65625 C 0.453125 -4.363281 0.625 -5.003906 0.96875 -5.578125 C 1.3125 -6.160156 1.78125 -6.613281 2.375 -6.9375 C 2.976562 -7.257812 3.65625 -7.421875 4.40625 -7.421875 C 5.144531 -7.421875 5.8125 -7.257812 6.40625 -6.9375 C 7.007812 -6.613281 7.484375 -6.164062 7.828125 -5.59375 C 8.171875 -5.019531 8.34375 -4.375 8.34375 -3.65625 C 8.34375 -2.9375 8.171875 -2.289062 7.828125 -1.71875 C 7.484375 -1.15625 7.007812 -0.707031 6.40625 -0.375 C 5.8125 -0.0507812 5.144531 0.109375 4.40625 0.109375 Z M 4.40625 -1.09375 C 4.882812 -1.09375 5.316406 -1.203125 5.703125 -1.421875 C 6.097656 -1.640625 6.40625 -1.941406 6.625 -2.328125 C 6.851562 -2.722656 6.96875 -3.164062 6.96875 -3.65625 C 6.96875 -4.144531 6.851562 -4.585938 6.625 -4.984375 C 6.40625 -5.378906 6.097656 -5.6875 5.703125 -5.90625 C 5.316406 -6.125 4.882812 -6.234375 4.40625 -6.234375 C 3.914062 -6.234375 3.472656 -6.125 3.078125 -5.90625 C 2.691406 -5.6875 2.382812 -5.378906 2.15625 -4.984375 C 1.9375 -4.585938 1.828125 -4.144531 1.828125 -3.65625 C 1.828125 -3.164062 1.9375 -2.722656 2.15625 -2.328125 C 2.382812 -1.941406 2.691406 -1.640625 3.078125 -1.421875 C 3.472656 -1.203125 3.914062 -1.09375 4.40625 -1.09375 Z M 4.40625 -1.09375 "/></g></g></g><g fill="#5dbc2d" fill-opacity="1"><g transform="translate(94.509158, 211.694487)"><g><path d="M 3.25 0.109375 C 2.6875 0.109375 2.140625 0.03125 1.609375 -0.125 C 1.085938 -0.289062 0.671875 -0.507812 0.359375 -0.78125 L 0.84375 -1.828125 C 1.132812 -1.585938 1.5 -1.394531 1.9375 -1.25 C 2.375 -1.101562 2.8125 -1.03125 3.25 -1.03125 C 3.789062 -1.03125 4.195312 -1.113281 4.46875 -1.28125 C 4.738281 -1.457031 4.875 -1.6875 4.875 -1.96875 C 4.875 -2.1875 4.796875 -2.363281 4.640625 -2.5 C 4.492188 -2.632812 4.304688 -2.738281 4.078125 -2.8125 C 3.847656 -2.882812 3.535156 -2.972656 3.140625 -3.078125 C 2.578125 -3.203125 2.125 -3.332031 1.78125 -3.46875 C 1.4375 -3.601562 1.140625 -3.8125 0.890625 -4.09375 C 0.640625 -4.375 0.515625 -4.753906 0.515625 -5.234375 C 0.515625 -5.640625 0.625 -6.007812 0.84375 -6.34375 C 1.070312 -6.675781 1.40625 -6.9375 1.84375 -7.125 C 2.289062 -7.320312 2.832031 -7.421875 3.46875 -7.421875 C 3.914062 -7.421875 4.351562 -7.363281 4.78125 -7.25 C 5.21875 -7.144531 5.59375 -6.988281 5.90625 -6.78125 L 5.484375 -5.71875 C 5.160156 -5.90625 4.820312 -6.046875 4.46875 -6.140625 C 4.125 -6.242188 3.785156 -6.296875 3.453125 -6.296875 C 2.921875 -6.296875 2.523438 -6.203125 2.265625 -6.015625 C 2.003906 -5.835938 1.875 -5.597656 1.875 -5.296875 C 1.875 -5.085938 1.945312 -4.914062 2.09375 -4.78125 C 2.25 -4.65625 2.441406 -4.550781 2.671875 -4.46875 C 2.898438 -4.394531 3.210938 -4.3125 3.609375 -4.21875 C 4.148438 -4.09375 4.59375 -3.957031 4.9375 -3.8125 C 5.289062 -3.675781 5.585938 -3.46875 5.828125 -3.1875 C 6.078125 -2.914062 6.203125 -2.539062 6.203125 -2.0625 C 6.203125 -1.664062 6.09375 -1.300781 5.875 -0.96875 C 5.65625 -0.644531 5.320312 -0.382812 4.875 -0.1875 C 4.4375 0.0078125 3.894531 0.109375 3.25 0.109375 Z M 3.25 0.109375 "/></g></g></g><g fill="#5dbc2d" fill-opacity="1"><g transform="translate(101.157374, 211.694487)"><g><path d="M 0.984375 -7.3125 L 2.34375 -7.3125 L 2.34375 0 L 0.984375 0 Z M 0.984375 -7.3125 "/></g></g></g><g fill="#5dbc2d" fill-opacity="1"><g transform="translate(104.565127, 211.694487)"><g><path d="M 7.703125 0 L 7.6875 -4.84375 L 5.296875 -0.84375 L 4.6875 -0.84375 L 2.28125 -4.78125 L 2.28125 0 L 0.984375 0 L 0.984375 -7.3125 L 2.09375 -7.3125 L 5 -2.46875 L 7.859375 -7.3125 L 8.984375 -7.3125 L 8.984375 0 Z M 7.703125 0 "/></g></g></g><g fill="#5dbc2d" fill-opacity="1"><g transform="translate(114.621049, 211.694487)"><g><path d="M 0.984375 -7.3125 L 2.34375 -7.3125 L 2.34375 0 L 0.984375 0 Z M 0.984375 -7.3125 "/></g></g></g><g fill="#5dbc2d" fill-opacity="1"><g transform="translate(118.028802, 211.694487)"><g><path d="M 0.984375 -7.3125 L 2.34375 -7.3125 L 2.34375 -1.15625 L 6.171875 -1.15625 L 6.171875 0 L 0.984375 0 Z M 0.984375 -7.3125 "/></g></g></g><g fill="#5dbc2d" fill-opacity="1"><g transform="translate(124.363416, 211.694487)"><g><path d="M 5.734375 -1.6875 L 2.0625 -1.6875 L 1.34375 0 L -0.046875 0 L 3.234375 -7.3125 L 4.578125 -7.3125 L 7.875 0 L 6.453125 0 Z M 5.28125 -2.765625 L 3.90625 -5.953125 L 2.53125 -2.765625 Z M 4.4375 -9.34375 L 5.984375 -9.34375 L 4.15625 -7.90625 L 3.03125 -7.90625 Z M 4.4375 -9.34375 "/></g></g></g><g fill="#5dbc2d" fill-opacity="1"><g transform="translate(132.265995, 211.694487)"><g><path d="M 5.765625 0 L 4.28125 -2.140625 C 4.21875 -2.128906 4.125 -2.125 4 -2.125 L 2.34375 -2.125 L 2.34375 0 L 0.984375 0 L 0.984375 -7.3125 L 4 -7.3125 C 4.625 -7.3125 5.171875 -7.207031 5.640625 -7 C 6.117188 -6.789062 6.484375 -6.488281 6.734375 -6.09375 C 6.984375 -5.707031 7.109375 -5.25 7.109375 -4.71875 C 7.109375 -4.164062 6.972656 -3.691406 6.703125 -3.296875 C 6.429688 -2.898438 6.046875 -2.601562 5.546875 -2.40625 L 7.234375 0 Z M 5.734375 -4.71875 C 5.734375 -5.1875 5.578125 -5.546875 5.265625 -5.796875 C 4.960938 -6.046875 4.519531 -6.171875 3.9375 -6.171875 L 2.34375 -6.171875 L 2.34375 -3.25 L 3.9375 -3.25 C 4.519531 -3.25 4.960938 -3.375 5.265625 -3.625 C 5.578125 -3.882812 5.734375 -4.25 5.734375 -4.71875 Z M 5.734375 -4.71875 "/></g></g></g><g fill="#5dbc2d" fill-opacity="1"><g transform="translate(139.980423, 211.694487)"><g><path d="M 7.484375 -7.3125 L 7.484375 0 L 6.359375 0 L 2.328125 -4.953125 L 2.328125 0 L 0.984375 0 L 0.984375 -7.3125 L 2.09375 -7.3125 L 6.140625 -2.359375 L 6.140625 -7.3125 Z M 7.484375 -7.3125 "/></g></g></g><g fill="#5dbc2d" fill-opacity="1"><g transform="translate(148.520644, 211.694487)"><g><path d="M 6.46875 -1.140625 L 6.46875 0 L 0.984375 0 L 0.984375 -7.3125 L 6.328125 -7.3125 L 6.328125 -6.171875 L 2.34375 -6.171875 L 2.34375 -4.28125 L 5.875 -4.28125 L 5.875 -3.15625 L 2.34375 -3.15625 L 2.34375 -1.140625 Z M 6.46875 -1.140625 "/></g></g></g><g fill="#5dbc2d" fill-opacity="1"><g transform="translate(155.59743, 211.694487)"><g/></g></g><g fill="#5dbc2d" fill-opacity="1"><g transform="translate(158.555693, 211.694487)"><g><path d="M 0.984375 -7.3125 L 2.34375 -7.3125 L 2.34375 -1.15625 L 6.171875 -1.15625 L 6.171875 0 L 0.984375 0 Z M 0.984375 -7.3125 "/></g></g></g><g fill="#5dbc2d" fill-opacity="1"><g transform="translate(164.890307, 211.694487)"><g><path d="M 0.984375 -7.3125 L 2.34375 -7.3125 L 2.34375 0 L 0.984375 0 Z M 0.984375 -7.3125 "/></g></g></g><g fill="#5dbc2d" fill-opacity="1"><g transform="translate(168.298059, 211.694487)"><g><path d="M 6.46875 -1.140625 L 6.46875 0 L 0.984375 0 L 0.984375 -7.3125 L 6.328125 -7.3125 L 6.328125 -6.171875 L 2.34375 -6.171875 L 2.34375 -4.28125 L 5.875 -4.28125 L 5.875 -3.15625 L 2.34375 -3.15625 L 2.34375 -1.140625 Z M 6.46875 -1.140625 "/></g></g></g><g fill="#5dbc2d" fill-opacity="1"><g transform="translate(175.374845, 211.694487)"><g><path d="M 3.5 -3.0625 L 2.34375 -1.875 L 2.34375 0 L 0.984375 0 L 0.984375 -7.3125 L 2.34375 -7.3125 L 2.34375 -3.5625 L 5.953125 -7.3125 L 7.484375 -7.3125 L 4.40625 -4.046875 L 7.671875 0 L 6.078125 0 Z M 3.5 -3.0625 "/></g></g></g><g fill="#5dbc2d" fill-opacity="1"><g transform="translate(183.068364, 211.694487)"><g><path d="M 4.140625 -2.578125 L 4.140625 0 L 2.78125 0 L 2.78125 -2.5625 L -0.09375 -7.3125 L 1.359375 -7.3125 L 3.5 -3.75 L 5.671875 -7.3125 L 7 -7.3125 Z M 4.140625 -2.578125 "/></g></g></g><g fill="#5dbc2d" fill-opacity="1"><g transform="translate(190.051079, 211.694487)"><g/></g></g><g fill="#5dbc2d" fill-opacity="1"><g transform="translate(193.009342, 211.694487)"><g><path d="M 4.40625 0.109375 C 3.65625 0.109375 2.976562 -0.0507812 2.375 -0.375 C 1.78125 -0.707031 1.3125 -1.160156 0.96875 -1.734375 C 0.625 -2.304688 0.453125 -2.945312 0.453125 -3.65625 C 0.453125 -4.363281 0.625 -5.003906 0.96875 -5.578125 C 1.3125 -6.160156 1.78125 -6.613281 2.375 -6.9375 C 2.976562 -7.257812 3.65625 -7.421875 4.40625 -7.421875 C 5.144531 -7.421875 5.8125 -7.257812 6.40625 -6.9375 C 7.007812 -6.613281 7.484375 -6.164062 7.828125 -5.59375 C 8.171875 -5.019531 8.34375 -4.375 8.34375 -3.65625 C 8.34375 -2.9375 8.171875 -2.289062 7.828125 -1.71875 C 7.484375 -1.15625 7.007812 -0.707031 6.40625 -0.375 C 5.8125 -0.0507812 5.144531 0.109375 4.40625 0.109375 Z M 4.40625 -1.09375 C 4.882812 -1.09375 5.316406 -1.203125 5.703125 -1.421875 C 6.097656 -1.640625 6.40625 -1.941406 6.625 -2.328125 C 6.851562 -2.722656 6.96875 -3.164062 6.96875 -3.65625 C 6.96875 -4.144531 6.851562 -4.585938 6.625 -4.984375 C 6.40625 -5.378906 6.097656 -5.6875 5.703125 -5.90625 C 5.316406 -6.125 4.882812 -6.234375 4.40625 -6.234375 C 3.914062 -6.234375 3.472656 -6.125 3.078125 -5.90625 C 2.691406 -5.6875 2.382812 -5.378906 2.15625 -4.984375 C 1.9375 -4.585938 1.828125 -4.144531 1.828125 -3.65625 C 1.828125 -3.164062 1.9375 -2.722656 2.15625 -2.328125 C 2.382812 -1.941406 2.691406 -1.640625 3.078125 -1.421875 C 3.472656 -1.203125 3.914062 -1.09375 4.40625 -1.09375 Z M 4.40625 -1.09375 "/></g></g></g><g fill="#5dbc2d" fill-opacity="1"><g transform="translate(201.884063, 211.694487)"><g><path d="M 4.375 0.109375 C 3.632812 0.109375 2.960938 -0.0507812 2.359375 -0.375 C 1.765625 -0.707031 1.296875 -1.15625 0.953125 -1.71875 C 0.617188 -2.289062 0.453125 -2.9375 0.453125 -3.65625 C 0.453125 -4.375 0.625 -5.019531 0.96875 -5.59375 C 1.3125 -6.164062 1.78125 -6.613281 2.375 -6.9375 C 2.96875 -7.257812 3.632812 -7.421875 4.375 -7.421875 C 4.976562 -7.421875 5.523438 -7.316406 6.015625 -7.109375 C 6.515625 -6.898438 6.9375 -6.597656 7.28125 -6.203125 L 6.390625 -5.375 C 5.867188 -5.945312 5.21875 -6.234375 4.4375 -6.234375 C 3.9375 -6.234375 3.488281 -6.125 3.09375 -5.90625 C 2.695312 -5.6875 2.382812 -5.378906 2.15625 -4.984375 C 1.9375 -4.597656 1.828125 -4.15625 1.828125 -3.65625 C 1.828125 -3.164062 1.9375 -2.722656 2.15625 -2.328125 C 2.382812 -1.941406 2.695312 -1.640625 3.09375 -1.421875 C 3.488281 -1.203125 3.9375 -1.09375 4.4375 -1.09375 C 5.21875 -1.09375 5.867188 -1.378906 6.390625 -1.953125 L 7.28125 -1.125 C 6.9375 -0.71875 6.515625 -0.410156 6.015625 -0.203125 C 5.515625 0.00390625 4.96875 0.109375 4.375 0.109375 Z M 6.3125 -9.34375 L 4.90625 -7.90625 L 3.71875 -7.90625 L 2.328125 -9.34375 L 3.390625 -9.34375 L 4.3125 -8.578125 L 5.234375 -9.34375 Z M 6.3125 -9.34375 "/></g></g></g><g fill="#5dbc2d" fill-opacity="1"><g transform="translate(209.556674, 211.694487)"><g><path d="M 5.734375 -1.6875 L 2.0625 -1.6875 L 1.34375 0 L -0.046875 0 L 3.234375 -7.3125 L 4.578125 -7.3125 L 7.875 0 L 6.453125 0 Z M 5.28125 -2.765625 L 3.90625 -5.953125 L 2.53125 -2.765625 Z M 5.28125 -2.765625 "/></g></g></g><g fill="#5dbc2d" fill-opacity="1"><g transform="translate(217.459254, 211.694487)"><g><path d="M 7.703125 0 L 7.6875 -4.84375 L 5.296875 -0.84375 L 4.6875 -0.84375 L 2.28125 -4.78125 L 2.28125 0 L 0.984375 0 L 0.984375 -7.3125 L 2.09375 -7.3125 L 5 -2.46875 L 7.859375 -7.3125 L 8.984375 -7.3125 L 8.984375 0 Z M 7.703125 0 "/></g></g></g><g fill="#5dbc2d" fill-opacity="1"><g transform="translate(227.515176, 211.694487)"><g><path d="M 0.984375 -7.3125 L 2.34375 -7.3125 L 2.34375 0 L 0.984375 0 Z M 0.984375 -7.3125 "/></g></g></g><g fill="#5dbc2d" fill-opacity="1"><g transform="translate(230.922929, 211.694487)"><g/></g></g><g fill="#5dbc2d" fill-opacity="1"><g transform="translate(233.881192, 211.694487)"><g><path d="M 3.25 0.109375 C 2.6875 0.109375 2.140625 0.03125 1.609375 -0.125 C 1.085938 -0.289062 0.671875 -0.507812 0.359375 -0.78125 L 0.84375 -1.828125 C 1.132812 -1.585938 1.5 -1.394531 1.9375 -1.25 C 2.375 -1.101562 2.8125 -1.03125 3.25 -1.03125 C 3.789062 -1.03125 4.195312 -1.113281 4.46875 -1.28125 C 4.738281 -1.457031 4.875 -1.6875 4.875 -1.96875 C 4.875 -2.1875 4.796875 -2.363281 4.640625 -2.5 C 4.492188 -2.632812 4.304688 -2.738281 4.078125 -2.8125 C 3.847656 -2.882812 3.535156 -2.972656 3.140625 -3.078125 C 2.578125 -3.203125 2.125 -3.332031 1.78125 -3.46875 C 1.4375 -3.601562 1.140625 -3.8125 0.890625 -4.09375 C 0.640625 -4.375 0.515625 -4.753906 0.515625 -5.234375 C 0.515625 -5.640625 0.625 -6.007812 0.84375 -6.34375 C 1.070312 -6.675781 1.40625 -6.9375 1.84375 -7.125 C 2.289062 -7.320312 2.832031 -7.421875 3.46875 -7.421875 C 3.914062 -7.421875 4.351562 -7.363281 4.78125 -7.25 C 5.21875 -7.144531 5.59375 -6.988281 5.90625 -6.78125 L 5.484375 -5.71875 C 5.160156 -5.90625 4.820312 -6.046875 4.46875 -6.140625 C 4.125 -6.242188 3.785156 -6.296875 3.453125 -6.296875 C 2.921875 -6.296875 2.523438 -6.203125 2.265625 -6.015625 C 2.003906 -5.835938 1.875 -5.597656 1.875 -5.296875 C 1.875 -5.085938 1.945312 -4.914062 2.09375 -4.78125 C 2.25 -4.65625 2.441406 -4.550781 2.671875 -4.46875 C 2.898438 -4.394531 3.210938 -4.3125 3.609375 -4.21875 C 4.148438 -4.09375 4.59375 -3.957031 4.9375 -3.8125 C 5.289062 -3.675781 5.585938 -3.46875 5.828125 -3.1875 C 6.078125 -2.914062 6.203125 -2.539062 6.203125 -2.0625 C 6.203125 -1.664062 6.09375 -1.300781 5.875 -0.96875 C 5.65625 -0.644531 5.320312 -0.382812 4.875 -0.1875 C 4.4375 0.0078125 3.894531 0.109375 3.25 0.109375 Z M 5.375 -9.34375 L 3.96875 -7.90625 L 2.78125 -7.90625 L 1.390625 -9.34375 L 2.453125 -9.34375 L 3.375 -8.578125 L 4.296875 -9.34375 Z M 5.375 -9.34375 "/></g></g></g><g fill="#5dbc2d" fill-opacity="1"><g transform="translate(240.529408, 211.694487)"><g><path d="M 4 -7.3125 C 4.625 -7.3125 5.171875 -7.207031 5.640625 -7 C 6.117188 -6.789062 6.484375 -6.488281 6.734375 -6.09375 C 6.984375 -5.707031 7.109375 -5.25 7.109375 -4.71875 C 7.109375 -4.1875 6.984375 -3.722656 6.734375 -3.328125 C 6.484375 -2.929688 6.117188 -2.628906 5.640625 -2.421875 C 5.171875 -2.210938 4.625 -2.109375 4 -2.109375 L 2.34375 -2.109375 L 2.34375 0 L 0.984375 0 L 0.984375 -7.3125 Z M 3.9375 -3.265625 C 4.519531 -3.265625 4.960938 -3.390625 5.265625 -3.640625 C 5.578125 -3.890625 5.734375 -4.25 5.734375 -4.71875 C 5.734375 -5.1875 5.578125 -5.546875 5.265625 -5.796875 C 4.960938 -6.046875 4.519531 -6.171875 3.9375 -6.171875 L 2.34375 -6.171875 L 2.34375 -3.265625 Z M 3.9375 -3.265625 "/></g></g></g><g fill="#5dbc2d" fill-opacity="1"><g transform="translate(248.191571, 211.694487)"><g><path d="M 6.46875 -1.140625 L 6.46875 0 L 0.984375 0 L 0.984375 -7.3125 L 6.328125 -7.3125 L 6.328125 -6.171875 L 2.34375 -6.171875 L 2.34375 -4.28125 L 5.875 -4.28125 L 5.875 -3.15625 L 2.34375 -3.15625 L 2.34375 -1.140625 Z M 6.46875 -1.140625 "/></g></g></g><g fill="#5dbc2d" fill-opacity="1"><g transform="translate(255.268356, 211.694487)"><g><path d="M 4.375 0.109375 C 3.632812 0.109375 2.960938 -0.0507812 2.359375 -0.375 C 1.765625 -0.707031 1.296875 -1.15625 0.953125 -1.71875 C 0.617188 -2.289062 0.453125 -2.9375 0.453125 -3.65625 C 0.453125 -4.375 0.625 -5.019531 0.96875 -5.59375 C 1.3125 -6.164062 1.78125 -6.613281 2.375 -6.9375 C 2.96875 -7.257812 3.632812 -7.421875 4.375 -7.421875 C 4.976562 -7.421875 5.523438 -7.316406 6.015625 -7.109375 C 6.515625 -6.898438 6.9375 -6.597656 7.28125 -6.203125 L 6.390625 -5.375 C 5.867188 -5.945312 5.21875 -6.234375 4.4375 -6.234375 C 3.9375 -6.234375 3.488281 -6.125 3.09375 -5.90625 C 2.695312 -5.6875 2.382812 -5.378906 2.15625 -4.984375 C 1.9375 -4.597656 1.828125 -4.15625 1.828125 -3.65625 C 1.828125 -3.164062 1.9375 -2.722656 2.15625 -2.328125 C 2.382812 -1.941406 2.695312 -1.640625 3.09375 -1.421875 C 3.488281 -1.203125 3.9375 -1.09375 4.4375 -1.09375 C 5.21875 -1.09375 5.867188 -1.378906 6.390625 -1.953125 L 7.28125 -1.125 C 6.9375 -0.71875 6.515625 -0.410156 6.015625 -0.203125 C 5.515625 0.00390625 4.96875 0.109375 4.375 0.109375 Z M 4.375 0.109375 "/></g></g></g><g fill="#5dbc2d" fill-opacity="1"><g transform="translate(262.940967, 211.694487)"><g><path d="M 0.984375 -7.3125 L 2.34375 -7.3125 L 2.34375 0 L 0.984375 0 Z M 0.984375 -7.3125 "/></g></g></g><g fill="#5dbc2d" fill-opacity="1"><g transform="translate(266.348708, 211.694487)"><g><path d="M 5.734375 -1.6875 L 2.0625 -1.6875 L 1.34375 0 L -0.046875 0 L 3.234375 -7.3125 L 4.578125 -7.3125 L 7.875 0 L 6.453125 0 Z M 5.28125 -2.765625 L 3.90625 -5.953125 L 2.53125 -2.765625 Z M 5.28125 -2.765625 "/></g></g></g><g fill="#5dbc2d" fill-opacity="1"><g transform="translate(274.251311, 211.694487)"><g><path d="M 0.984375 -7.3125 L 2.34375 -7.3125 L 2.34375 -1.15625 L 6.171875 -1.15625 L 6.171875 0 L 0.984375 0 Z M 0.984375 -7.3125 "/></g></g></g><g fill="#5dbc2d" fill-opacity="1"><g transform="translate(280.585913, 211.694487)"><g><path d="M 0.984375 -7.3125 L 2.34375 -7.3125 L 2.34375 0 L 0.984375 0 Z M 0.984375 -7.3125 "/></g></g></g><g fill="#5dbc2d" fill-opacity="1"><g transform="translate(283.993666, 211.694487)"><g><path d="M 3.25 0.109375 C 2.6875 0.109375 2.140625 0.03125 1.609375 -0.125 C 1.085938 -0.289062 0.671875 -0.507812 0.359375 -0.78125 L 0.84375 -1.828125 C 1.132812 -1.585938 1.5 -1.394531 1.9375 -1.25 C 2.375 -1.101562 2.8125 -1.03125 3.25 -1.03125 C 3.789062 -1.03125 4.195312 -1.113281 4.46875 -1.28125 C 4.738281 -1.457031 4.875 -1.6875 4.875 -1.96875 C 4.875 -2.1875 4.796875 -2.363281 4.640625 -2.5 C 4.492188 -2.632812 4.304688 -2.738281 4.078125 -2.8125 C 3.847656 -2.882812 3.535156 -2.972656 3.140625 -3.078125 C 2.578125 -3.203125 2.125 -3.332031 1.78125 -3.46875 C 1.4375 -3.601562 1.140625 -3.8125 0.890625 -4.09375 C 0.640625 -4.375 0.515625 -4.753906 0.515625 -5.234375 C 0.515625 -5.640625 0.625 -6.007812 0.84375 -6.34375 C 1.070312 -6.675781 1.40625 -6.9375 1.84375 -7.125 C 2.289062 -7.320312 2.832031 -7.421875 3.46875 -7.421875 C 3.914062 -7.421875 4.351562 -7.363281 4.78125 -7.25 C 5.21875 -7.144531 5.59375 -6.988281 5.90625 -6.78125 L 5.484375 -5.71875 C 5.160156 -5.90625 4.820312 -6.046875 4.46875 -6.140625 C 4.125 -6.242188 3.785156 -6.296875 3.453125 -6.296875 C 2.921875 -6.296875 2.523438 -6.203125 2.265625 -6.015625 C 2.003906 -5.835938 1.875 -5.597656 1.875 -5.296875 C 1.875 -5.085938 1.945312 -4.914062 2.09375 -4.78125 C 2.25 -4.65625 2.441406 -4.550781 2.671875 -4.46875 C 2.898438 -4.394531 3.210938 -4.3125 3.609375 -4.21875 C 4.148438 -4.09375 4.59375 -3.957031 4.9375 -3.8125 C 5.289062 -3.675781 5.585938 -3.46875 5.828125 -3.1875 C 6.078125 -2.914062 6.203125 -2.539062 6.203125 -2.0625 C 6.203125 -1.664062 6.09375 -1.300781 5.875 -0.96875 C 5.65625 -0.644531 5.320312 -0.382812 4.875 -0.1875 C 4.4375 0.0078125 3.894531 0.109375 3.25 0.109375 Z M 3.25 0.109375 "/></g></g></g><g fill="#5dbc2d" fill-opacity="1"><g transform="translate(290.641881, 211.694487)"><g><path d="M 2.46875 -6.171875 L 0.046875 -6.171875 L 0.046875 -7.3125 L 6.25 -7.3125 L 6.25 -6.171875 L 3.828125 -6.171875 L 3.828125 0 L 2.46875 0 Z M 2.46875 -6.171875 "/></g></g></g><g fill="#5dbc2d" fill-opacity="1"><g transform="translate(297.007863, 211.694487)"><g><path d="M 4.40625 0.109375 C 3.65625 0.109375 2.976562 -0.0507812 2.375 -0.375 C 1.78125 -0.707031 1.3125 -1.160156 0.96875 -1.734375 C 0.625 -2.304688 0.453125 -2.945312 0.453125 -3.65625 C 0.453125 -4.363281 0.625 -5.003906 0.96875 -5.578125 C 1.3125 -6.160156 1.78125 -6.613281 2.375 -6.9375 C 2.976562 -7.257812 3.65625 -7.421875 4.40625 -7.421875 C 5.144531 -7.421875 5.8125 -7.257812 6.40625 -6.9375 C 7.007812 -6.613281 7.484375 -6.164062 7.828125 -5.59375 C 8.171875 -5.019531 8.34375 -4.375 8.34375 -3.65625 C 8.34375 -2.9375 8.171875 -2.289062 7.828125 -1.71875 C 7.484375 -1.15625 7.007812 -0.707031 6.40625 -0.375 C 5.8125 -0.0507812 5.144531 0.109375 4.40625 0.109375 Z M 4.40625 -1.09375 C 4.882812 -1.09375 5.316406 -1.203125 5.703125 -1.421875 C 6.097656 -1.640625 6.40625 -1.941406 6.625 -2.328125 C 6.851562 -2.722656 6.96875 -3.164062 6.96875 -3.65625 C 6.96875 -4.144531 6.851562 -4.585938 6.625 -4.984375 C 6.40625 -5.378906 6.097656 -5.6875 5.703125 -5.90625 C 5.316406 -6.125 4.882812 -6.234375 4.40625 -6.234375 C 3.914062 -6.234375 3.472656 -6.125 3.078125 -5.90625 C 2.691406 -5.6875 2.382812 -5.378906 2.15625 -4.984375 C 1.9375 -4.585938 1.828125 -4.144531 1.828125 -3.65625 C 1.828125 -3.164062 1.9375 -2.722656 2.15625 -2.328125 C 2.382812 -1.941406 2.691406 -1.640625 3.078125 -1.421875 C 3.472656 -1.203125 3.914062 -1.09375 4.40625 -1.09375 Z M 4.40625 -1.09375 "/></g></g></g><g fill="#5dbc2d" fill-opacity="1"><g transform="translate(305.882595, 211.694487)"><g><path d="M 7.671875 -7.3125 L 4.484375 0 L 3.140625 0 L -0.046875 -7.3125 L 1.421875 -7.3125 L 3.859375 -1.671875 L 6.3125 -7.3125 Z M 7.671875 -7.3125 "/></g></g></g><g clip-path="url(#3c2c2a1434)"><g clip-path="url(#6f4b092daf)"><g transform="matrix(1, 0, 0, 1, 223, 145)"><g clip-path="url(#6a07f4f98a)"><g clip-path="url(#568cf2edaa)"><g clip-path="url(#1d5287c0d8)"><path fill="#5dbc2d" d="M 0.320312 0.890625 L 25.882812 0.890625 L 25.882812 26.457031 L 0.320312 26.457031 Z M 0.320312 0.890625 " fill-opacity="1" fill-rule="nonzero"/></g></g></g></g></g></g><g clip-path="url(#5648a3bb2e)"><g clip-path="url(#72312af683)"><g transform="matrix(1, 0, 0, 1, 257, 145)"><g clip-path="url(#d335a37b01)"><g clip-path="url(#9f75e69fed)"><g clip-path="url(#54e1f19b3e)"><path fill="#5dbc2d" d="M 0.195312 0.890625 L 25.757812 0.890625 L 25.757812 26.457031 L 0.195312 26.457031 Z M 0.195312 0.890625 " fill-opacity="1" fill-rule="nonzero"/></g></g></g></g></g></g><g clip-path="url(#342a56fc18)"><g clip-path="url(#8ff96b32f2)"><g transform="matrix(1, 0, 0, 1, 262, 151)"><g clip-path="url(#179c000fc5)"><g clip-path="url(#03af568cd0)"><g clip-path="url(#15d61b9d93)"><path fill="#ffffff" d="M 0.492188 0.1875 L 15.460938 0.1875 L 15.460938 15.160156 L 0.492188 15.160156 Z M 0.492188 0.1875 " fill-opacity="1" fill-rule="nonzero"/></g></g></g></g></g></g><g clip-path="url(#40d7b9df27)"><g clip-path="url(#b0276cd330)"><g transform="matrix(1, 0, 0, 1, 225, 147)"><g clip-path="url(#08a6317cba)"><g clip-path="url(#f40b53912a)"><g clip-path="url(#13361d1c34)"><path fill="#ffffff" d="M 0.335938 0.910156 L 21.867188 0.910156 L 21.867188 22.4375 L 0.335938 22.4375 Z M 0.335938 0.910156 " fill-opacity="1" fill-rule="nonzero"/></g></g></g></g></g></g></svg>